<?xml version="1.0" encoding="UTF-8"?>
<svg width="28px" height="32px" viewBox="0 0 28 32" version="1.1" xmlns="http://www.w3.org/2000/svg" xmlns:xlink="http://www.w3.org/1999/xlink">
    <!-- Generator: Sketch 60 (88103) - https://sketch.com -->
    <title>icon_cocktail</title>
    <desc>Created with Sketch.</desc>
    <g id="City-Guide" stroke="none" stroke-width="1" fill="none" fill-rule="evenodd">
        <g id="03_Place-Detail-1" transform="translate(-265.000000, -570.000000)" fill="#5D5D5D" fill-rule="nonzero">
            <g id="detail" transform="translate(135.000000, 570.000000)">
                <g id="amenities">
                    <g id="1" transform="translate(119.000000, 0.000000)">
                        <g id="icon_cocktail" transform="translate(11.000000, 0.000000)">
                            <path d="M15.341,16.4993125 L26.9634375,3.7130625 C27.219375,3.4314375 27.28275,3.0403125 27.12875,2.6923125 C26.9748125,2.3443125 26.64275,2.128125 26.26225,2.128125 L22.626875,2.128125 L23.894,0.7916875 C24.07225,0.6036875 24.0643125,0.306875 23.876375,0.128625 C23.6884375,-0.0495 23.391625,-0.0416875 23.2133125,0.1463125 L21.3343125,2.1281875 L0.9878125,2.1281875 C0.60725,2.1281875 0.2751875,2.344375 0.12125,2.692375 C-0.0326875,3.0404375 0.0306875,3.4315625 0.286625,3.713125 L11.9090625,16.4993125 C12.0329375,16.6355625 12.172125,16.7548125 12.3221875,16.856625 L12.3221875,28.1229375 C12.3221875,28.718 11.9445625,29.249125 11.3825,29.4445 L7.4883125,30.7985 C7.4788125,30.8018125 7.4694375,30.805375 7.46025,30.80925 C7.1851875,30.9251875 7.034375,31.2105 7.0934375,31.5030625 C7.1525625,31.795625 7.4023125,32.0000054 7.7008125,32.0000054 L19.549125,32.0000054 C19.847625,32.0000054 20.0974375,31.7956875 20.1565625,31.5030625 C20.2156875,31.2105 20.0648125,30.925125 19.78975,30.80925 C19.7805625,30.805375 19.771125,30.80175 19.7616875,30.7985 L15.8675,29.4445 C15.3055,29.2490625 14.9278125,28.718 14.9278125,28.1229375 L14.9278125,16.8566875 C15.0779375,16.7548125 15.217125,16.6355625 15.341,16.4993125 Z M21.7375625,3.0661875 L26.26225,3.0661875 C26.26525,3.0661875 26.267,3.06625 26.2675,3.0663125 C26.270125,3.0689375 26.273,3.0754375 26.2731875,3.0770625 C26.2731875,3.0770625 26.2723125,3.0788125 26.2693125,3.082125 L23.38275,6.25775 L21.075625,6.25775 C21.2865,5.5821875 21.1521875,4.799625 20.691,4.1700625 L21.7375625,3.0661875 Z M15.5594375,30.3305 L17.6631875,31.0619375 L9.5868125,31.0619375 L11.6905625,30.3305 C12.6294375,30.0040625 13.26025,29.1169375 13.26025,28.1229375 L13.26025,17.2293125 C13.2809375,17.2326875 13.3018125,17.235 13.322625,17.23775 C13.333625,17.2391875 13.344625,17.2408125 13.355625,17.242125 C13.3805,17.2450625 13.4054375,17.247375 13.430375,17.2494375 C13.437875,17.2500625 13.445375,17.2506875 13.452875,17.25125 C13.51,17.2555 13.567375,17.2584375 13.6250625,17.2584375 C13.6828125,17.2584375 13.74025,17.2555 13.7975,17.2511875 C13.80475,17.250625 13.8120625,17.2500625 13.8193125,17.2494375 C13.8445,17.2473125 13.869625,17.245 13.8946875,17.2420625 C13.9051875,17.240875 13.915625,17.23925 13.926125,17.237875 C13.947375,17.2350625 13.9686875,17.2326875 13.9898125,17.2293125 L13.9898125,28.1228125 C13.98975,29.1169375 14.6205625,30.0040625 15.5594375,30.3305 Z M14.646875,15.8683125 C14.5335,15.9930625 14.4020625,16.093625 14.258,16.168125 C14.2545,16.16975 14.250875,16.170875 14.2474375,16.172625 C13.8576875,16.3693125 13.39225,16.369375 13.0025,16.172625 C12.999125,16.1709375 12.9955,16.1698125 12.9920625,16.1681875 C12.848,16.0936875 12.7165625,15.993125 12.603125,15.868375 L4.7199375,7.19575 L6.459125,7.19575 C6.718125,7.19575 6.928125,6.98575 6.928125,6.72675 C6.928125,6.46775 6.718125,6.25775 6.459125,6.25775 L3.86725,6.25775 L0.9806875,3.082125 C0.978625,3.079875 0.9775625,3.078375 0.97725,3.078125 C0.97725,3.0744375 0.9803125,3.068 0.9813125,3.06675 C0.9813125,3.06675 0.9831875,3.0661875 0.98775,3.0661875 L20.4449375,3.0661875 L20.010625,3.52425 C19.6275,3.2729375 19.189375,3.130375 18.7409375,3.116 C18.1200625,3.096125 17.55275,3.32175 17.14525,3.7516875 C16.7376875,4.1815625 16.542375,4.7595 16.595375,5.379 C16.6023125,5.45975 16.6136875,5.539875 16.6288125,5.6191875 C15.9521875,5.5279375 15.269125,5.7305625 14.7931875,6.2325 C14.785375,6.24075 14.77825,6.249375 14.7705625,6.25775 L8.6415625,6.25775 C8.3825625,6.25775 8.1725625,6.46775 8.1725625,6.72675 C8.1725625,6.98575 8.3825625,7.19575 8.6415625,7.19575 L14.2869375,7.19575 C14.2231875,7.4880625 14.2210625,7.7953125 14.2785,8.0981875 C14.1984375,8.087375 14.1178125,8.08025 14.0368125,8.077625 C13.4154375,8.0575 12.8486875,8.283375 12.441125,8.7133125 C11.7153125,9.478875 11.70925,10.6884375 12.3669375,11.586375 L11.8484375,12.13325 C11.67025,12.32125 11.678125,12.6180625 11.866125,12.7963125 C11.9568125,12.8823125 12.072875,12.9249375 12.18875,12.9249375 C12.3129375,12.9249375 12.437,12.875875 12.5291875,12.778625 L13.0473125,12.232125 C13.4304375,12.4834375 13.8685,12.626 14.3170625,12.640375 C14.3424375,12.6411875 14.367625,12.641625 14.3928125,12.641625 C14.9844375,12.641625 15.521875,12.4170625 15.9128125,12.00475 C16.320375,11.574875 16.5156875,10.9969375 16.4626875,10.3774375 C16.45575,10.29675 16.444375,10.2166875 16.4293125,10.137375 C16.534,10.1515 16.638875,10.159 16.7430625,10.159 C17.312375,10.159 17.8626875,9.9481875 18.2649375,9.523875 C18.740875,9.021875 18.9068125,8.329 18.779625,7.6581875 C18.8596875,7.669 18.9403125,7.676125 19.02125,7.67875 C19.046625,7.6795625 19.0718125,7.68 19.097,7.68 C19.610875,7.68 20.0836875,7.510375 20.45525,7.1956875 L22.53025,7.1956875 L14.646875,15.8683125 Z M15.4738125,6.877875 C15.6928125,6.6469375 15.9953125,6.5331875 16.3148125,6.5331875 C16.6818125,6.5331875 17.0713125,6.68325 17.3823125,6.978125 C17.9640625,7.5298125 18.0545625,8.3823125 17.5840625,8.8785625 C17.1135,9.3746875 16.257625,9.3298125 15.6758125,8.7785 C15.67575,8.7784375 15.675625,8.7783125 15.6755625,8.77825 C15.0938125,8.226625 15.0033125,7.374125 15.4738125,6.877875 Z M15.2319375,11.3594375 C15.01125,11.5921875 14.698125,11.7135625 14.3470625,11.7029375 C13.9763125,11.6910625 13.6128125,11.5334375 13.3235,11.259125 C12.7416875,10.7075 12.6511875,9.855 13.12175,9.35875 C13.333125,9.1358125 13.63025,9.0145 13.962375,9.0145 C13.977125,9.0145 13.991875,9.01475 14.006625,9.0151875 C14.37725,9.0270625 14.7406875,9.184625 15.0299375,9.45875 C15.03,9.4588125 15.030125,9.4589375 15.0301875,9.459 C15.3194375,9.7333125 15.4961875,10.087875 15.5278125,10.4575 C15.5576875,10.8063125 15.452625,11.126625 15.2319375,11.3594375 Z M17.53,5.299 C17.500125,4.9501875 17.6051875,4.629875 17.825875,4.3970625 C18.03725,4.1741875 18.3343125,4.0528125 18.6665,4.0528125 C18.681125,4.0528125 18.6959375,4.0530625 18.71075,4.0535 C19.0815,4.0654375 19.445,4.223 19.73425,4.4973125 C20.316,5.048875 20.4065,5.9014375 19.936,6.3976875 C19.7153125,6.6304375 19.4003125,6.7518125 19.051125,6.7411875 C18.6804375,6.729375 18.3169375,6.57175 18.0276875,6.2974375 C17.738375,6.0231875 17.5616875,5.6685625 17.53,5.299 Z" id="Shape"></path>
                        </g>
                    </g>
                </g>
            </g>
        </g>
    </g>
</svg>