<?xml version="1.0" encoding="UTF-8"?>
<svg width="22px" height="20px" viewBox="0 0 22 20" version="1.1" xmlns="http://www.w3.org/2000/svg" xmlns:xlink="http://www.w3.org/1999/xlink">
    <!-- Generator: Sketch 60 (88103) - https://sketch.com -->
    <title>icon_pool</title>
    <desc>Created with Sketch.</desc>
    <g id="City-Guide" stroke="none" stroke-width="1" fill="none" fill-rule="evenodd">
        <g id="03_Place-Detail-1" transform="translate(-864.000000, -607.000000)" fill="#5D5D5D" fill-rule="nonzero">
            <g id="detail" transform="translate(135.000000, 569.000000)">
                <g id="amenities">
                    <g id="1" transform="translate(119.000000, 0.000000)">
                        <g id="icon_pool" transform="translate(610.000000, 38.000000)">
                            <path d="M21.4069388,5.44244898 L19.5928798,5.44244898 L19.5928798,1.25088435 C19.5823129,0.551836735 19.0087075,-0.00721088435 18.3096145,0.000197856446 C17.857551,-0.000952380952 17.437551,0.233650794 17.2015873,0.619229025 L14.8763265,4.49333333 L14.8763265,1.25088435 C14.8657596,0.551836735 14.2921542,-0.00721088435 13.5930612,0.000197856446 C13.1409977,-0.000952380952 12.7209977,0.233650794 12.485034,0.619229025 L9.59015873,5.44244898 L0.363854875,5.44244898 C0.163492063,5.44244898 0.0010430839,5.60489796 0.0010430839,5.80526077 C0.0010430839,6.00562358 0.163492063,6.16807256 0.363854875,6.16807256 L9.15478458,6.16807256 L9.05029478,6.34185941 C8.82671202,6.71460317 8.70857143,7.14113379 8.70852608,7.57578231 L8.70852608,13.0614966 C8.70852608,13.2618594 8.87097506,13.4243084 9.07133787,13.4243084 C9.27170068,13.4243084 9.43414966,13.2618594 9.43414966,13.0614966 L9.43414966,11.6102494 L13.4250794,11.6102494 L13.4250794,13.0614966 C13.4250794,13.2618594 13.5875283,13.4243084 13.7878912,13.4243084 C13.988254,13.4243084 14.1507029,13.2618594 14.1507029,13.0614966 L14.1507029,7.57578231 C14.150839,7.27265306 14.2331973,6.97519274 14.3890703,6.71519274 L14.717415,6.16807256 L21.4069388,6.16807256 C21.6073016,6.16807256 21.7697506,6.00562358 21.7697506,5.80526077 C21.7697506,5.60489796 21.6073016,5.44244898 21.4069388,5.44244898 Z M13.4250794,10.8846259 L9.43414966,10.8846259 L9.43414966,9.07056689 L13.4250794,9.07056689 L13.4250794,10.8846259 Z M13.7668481,6.34185941 C13.5432653,6.71460317 13.4251247,7.14113379 13.4250794,7.57578231 L13.4250794,8.34494331 L9.43414966,8.34494331 L9.43414966,7.57578231 C9.43428571,7.27265306 9.51664399,6.97519274 9.67251701,6.71519274 L10.0008617,6.16807256 L13.8713379,6.16807256 L13.7668481,6.34185941 Z M14.1507029,5.44244898 L10.4365986,5.44244898 L13.1072562,0.992562358 C13.2115646,0.824988662 13.3956916,0.723945578 13.5930612,0.725895692 C13.8914739,0.718367347 14.1402268,0.952562358 14.1507029,1.25088435 L14.1507029,5.44244898 L14.1507029,5.44244898 Z M18.8672562,5.44244898 L15.1531519,5.44244898 L17.8238095,0.992562358 C17.9281179,0.824988662 18.1122449,0.723945578 18.3096145,0.725895692 C18.6080272,0.718367347 18.85678,0.952562358 18.8672562,1.25088435 L18.8672562,5.44244898 L18.8672562,5.44244898 Z" id="Shape"></path>
                            <path d="M21.6670748,14.6154195 C21.5271202,14.4714739 21.2969615,14.4682086 21.1529705,14.6081633 C20.5911111,15.1486168 19.7026757,15.1486168 19.1408163,14.6081633 C18.2962812,13.796644 16.961678,13.796644 16.1171429,14.6081633 C15.5549206,15.1476644 14.6672109,15.1476644 14.1049887,14.6081633 C13.2603175,13.7965533 11.9256236,13.7965533 11.0809524,14.6081633 C10.519093,15.1486168 9.6306576,15.1486168 9.06879819,14.6081633 C8.22426304,13.796644 6.88965986,13.796644 6.04512472,14.6081633 C5.48290249,15.1476644 4.59519274,15.1476644 4.03297052,14.6081633 C3.18829932,13.7965533 1.85360544,13.7965533 1.00893424,14.6081633 L0.109886621,15.4829025 C-0.0334693878,15.6228571 -0.0362358277,15.8525624 0.103718821,15.9959184 C0.243492063,16.1394558 0.473151927,16.142585 0.616734694,16.0028118 L1.51614512,15.1295238 C2.07800454,14.5890703 2.96643991,14.5890703 3.52829932,15.1295238 C4.37324263,15.9403628 5.70739229,15.9403628 6.5523356,15.1295238 C7.11414966,14.5892971 8.00231293,14.5892971 8.56412698,15.1295238 C9.40893424,15.9407256 10.743356,15.9407256 11.5881633,15.1295238 C12.1499773,14.5892971 13.0381406,14.5892971 13.5999546,15.1295238 C14.444898,15.9403628 15.7790476,15.9403628 16.6239909,15.1295238 C17.185805,14.5892971 18.0739683,14.5892971 18.6357823,15.1295238 C19.4805896,15.9407256 20.8150113,15.9407256 21.6598186,15.1295238 C21.8038095,14.9895692 21.8070295,14.7594104 21.6670748,14.6154195 Z" id="Path"></path>
                            <path d="M21.666712,11.0965079 C21.5264399,10.9530159 21.2964172,10.9504308 21.1529705,11.0907029 C20.5911111,11.6311565 19.7026757,11.6311565 19.1408163,11.0907029 C18.2961451,10.2795465 16.9618141,10.2795465 16.1171429,11.0907029 C15.8726531,11.3268934 15.552517,11.4690249 15.2133787,11.4919728 C15.0134694,11.5057143 14.862585,11.6789116 14.8763265,11.8788209 C14.8763265,11.8789116 14.8763265,11.8790023 14.8763265,11.879093 C14.893288,12.0775057 15.0645805,12.2266667 15.2634467,12.2161451 C15.7742857,12.1812245 16.2562812,11.966576 16.6239909,11.6102494 C17.185805,11.0700227 18.0739683,11.0700227 18.6357823,11.6102494 C19.4807256,12.4221769 20.8159637,12.4221769 21.660907,11.6102494 C21.8043991,11.4699773 21.8069841,11.2399546 21.666712,11.0965079 Z" id="Path"></path>
                            <path d="M7.63206349,10.4808163 C7.04272109,10.4596372 6.47015873,10.6793197 6.04621315,11.0892517 C5.48435374,11.6297052 4.59591837,11.6297052 4.03405896,11.0892517 C3.18893424,10.2787755 1.85514739,10.2787755 1.01002268,11.0892517 L0.109886621,11.9654422 C-0.0337868481,12.1057143 -0.036553288,12.335873 0.103718821,12.4795465 C0.24399093,12.62322 0.47414966,12.6259864 0.617823129,12.4857143 L1.51614512,11.6102494 C2.0785034,11.0711111 2.96594104,11.0711111 3.52829932,11.6102494 C4.37342404,12.4207256 5.70721088,12.4207256 6.5523356,11.6102494 C6.83478458,11.3378231 7.21596372,11.1920181 7.60811791,11.2064399 C7.80848073,11.2130612 7.97628118,11.0559637 7.98290249,10.8556009 C7.98952381,10.6552381 7.8324263,10.4874376 7.63206349,10.4808163 Z" id="Path"></path>
                            <path d="M21.6670748,18.4644898 C21.5271202,18.3205442 21.2969615,18.3172789 21.1529705,18.4572336 C20.5911111,18.9976871 19.7026757,18.9976871 19.1408163,18.4572336 C18.2961451,17.6460771 16.9618141,17.6460771 16.1171429,18.4572336 C15.5549206,18.9967347 14.6672109,18.9967347 14.1049887,18.4572336 C13.2598639,17.6467574 11.9260771,17.6467574 11.0809524,18.4572336 C10.519093,18.9976871 9.6306576,18.9976871 9.06879819,18.4572336 C8.22412698,17.6460771 6.88979592,17.6460771 6.04512472,18.4572336 C5.48290249,18.9967347 4.59519274,18.9967347 4.03297052,18.4572336 C3.1878458,17.6467574 1.85405896,17.6467574 1.00893424,18.4572336 L0.109886621,19.3319728 C-0.0337868481,19.4716553 -0.0370068027,19.7013605 0.102675737,19.845034 C0.103038549,19.8453968 0.103356009,19.8457596 0.103718821,19.8460771 C0.243401361,19.9897506 0.473061224,19.9929705 0.616734694,19.8533333 L1.51614512,18.9785941 C2.07836735,18.439093 2.9660771,18.439093 3.52829932,18.9785941 C4.37324263,19.7894331 5.70739229,19.7894331 6.5523356,18.9785941 C7.11414966,18.4383673 8.00231293,18.4383673 8.56412698,18.9785941 C9.40893424,19.7897959 10.743356,19.7897959 11.5881633,18.9785941 C12.1499773,18.4383673 13.0381406,18.4383673 13.5999546,18.9785941 C14.444898,19.7894331 15.7790476,19.7894331 16.6239909,18.9785941 C17.185805,18.4383673 18.0739683,18.4383673 18.6357823,18.9785941 C19.4807256,19.7894331 20.8148753,19.7894331 21.6598186,18.9785941 C21.8038095,18.8386395 21.8070295,18.6084807 21.6670748,18.4644898 Z" id="Path"></path>
                        </g>
                    </g>
                </g>
            </g>
        </g>
    </g>
</svg>